solid camera
  facet normal 0.0 -4.0 -1.0
    outer loop
      vertex 0.0 0.0 0.0
      vertex 1.0 -0.5 2.0
      vertex -1.0 -0.5 2.0
    endloop
  endfacet
  facet normal 2.0 0.0 -1.0
    outer loop
      vertex 0.0 0.0 0.0
      vertex 1.0 0.5 2.0
      vertex 1.0 -0.5 2.0
    endloop
  endfacet
  facet normal 0.0 4.0 -1.0
    outer loop
      vertex 0.0 0.0 0.0
      vertex -1.0 0.5 2.0
      vertex 1.0 0.5 2.0
    endloop
  endfacet
  facet normal -2.0 0.0 -1.0
    outer loop
      vertex 0.0 0.0 0.0
      vertex -1.0 -0.5 2.0
      vertex -1.0 0.5 2.0
    endloop
  endfacet
  facet normal 0.0 0.0 2.0
    outer loop
      vertex -1.0 -0.5 2.0
      vertex 1.0 -0.5 2.0
      vertex 1.0 0.5 2.0
    endloop
  endfacet
  facet normal 0.0 0.0 2.0
    outer loop
      vertex -1.0 -0.5 2.0
      vertex 1.0 0.5 2.0
      vertex -1.0 0.5 2.0
    endloop
  endfacet
  facet normal -0.0 0.0 0.55
    outer loop
      vertex -0.5 -0.55 2.0
      vertex 0.0 -1.1 2.0
      vertex 0.5 -0.55 2.0
    endloop
  endfacet
  facet normal 0.0 0.0 -0.55
    outer loop
      vertex -0.5 -0.55 2.0
      vertex 0.5 -0.55 2.0
      vertex 0.0 -1.1 2.0
    endloop
  endfacet
endsolid
